<svg id="svg5333" height="512" viewBox="0 0 16.933333 16.933334" width="512" xmlns="http://www.w3.org/2000/svg" xmlns:svg="http://www.w3.org/2000/svg"><g id="layer1" transform="translate(0 -280.067)"><path id="path7968" d="m2.9217043 280.6351c-.2885757 0-.5291667.24059-.5291667.52917v14.81666c0 .28858.2405777.52917.5291667.52917h11.1114687c.288586 0 .529166-.24059.529166-.52917v-11.90625c.00005-.0735-.03046-.14369-.08423-.19378l-3.439067-3.17552c-.04895-.0452-.113178-.0703-.179835-.0703zm0 .52917h7.6718847v3.43958h3.439584v11.37708h-11.1114687zm8.2010517.33848 2.785875 2.57193h-2.785875zm-6.6130331 1.24953c-.2885784 0-.5291667.24059-.5291667.52917v1.05885c0 .28858.2405883.52917.5291667.52917h1.0562643c.2885784 0 .5296852-.24059.5296852-.52917v-1.05885c0-.28858-.2411068-.52917-.5296852-.52917zm2.6442829.26356c-.3607858-.008-.3607858.53726 0 .52916h2.3848669c.3449452-.008.3449452-.52142 0-.52916zm-2.6442829.26561h1.0562643v1.05885h-1.0562643zm2.6442829.79323c-.3452416.007-.3452416.52172 0 .52917h2.396752c.3452415-.007.3452415-.52171 0-.52917zm-2.6442829 1.85105c-.2885784 0-.5291667.24111-.5291667.52969v1.05833c0 .28858.2405883.52968.5291667.52968h1.0562643c.2885784 0 .5296852-.2411.5296852-.52968v-1.05833c0-.28858-.2411068-.52969-.5296852-.52969zm2.6442829.7953h5.8203152c.35312 0 .35312-.52968 0-.52968h-5.8203152c-.359963.002-.3508851.53325 0 .52968zm-2.6442829-.26561h1.0562643v1.05833h-1.0562643zm2.6442829 1.32395h5.8203152c.360476.008.360476-.53695 0-.52917h-5.8203152c-.3509566.00079-.3508005.52989 0 .52917zm-2.6442829 1.3224c-.2885784 0-.5291667.24058-.5291667.52916v1.05885c0 .28859.2405883.52917.5291667.52917h1.0562643c.2885784 0 .5296852-.24058.5296852-.52917v-1.05885c0-.28858-.2411068-.52916-.5296852-.52916zm2.6442829.26355c-.3607858-.008-.3607858.53726 0 .52916h5.5567662c.344945-.008.344945-.52142 0-.52916zm-2.6442829.26561h1.0562643v1.05885h-1.0562643zm2.6504821.79324c-.3604763-.008-.3604763.53695 0 .52917h5.550567c.360476.008.360476-.53696 0-.52917zm-2.6504821 1.85363c-.2885784 0-.5291667.24059-.5291667.52917v1.05626c0 .28858.2405883.52969.5291667.52969h1.0562643c.2885784 0 .5296852-.24111.5296852-.52969v-1.05626c0-.28858-.2411068-.52917-.5296852-.52917zm2.6442829.26355c-.3449452.008-.3449452.52142 0 .52917h5.5567662c.360786.008.360786-.53727 0-.52917zm-2.6442829.26562h1.0562643v1.05626h-1.0562643zm2.6442829 1.32188h5.5567662c.360476.008.360476-.53695 0-.52917h-5.5567662c-.362929.003-.3392408.53132 0 .52917z" font-variant-ligatures="normal" font-variant-position="normal" font-variant-caps="normal" font-variant-numeric="normal" font-variant-alternates="normal" font-feature-settings="normal" text-indent="0" text-align="start" text-decoration-line="none" text-decoration-style="solid" text-decoration-color="rgb(0,0,0)" text-transform="none" text-orientation="mixed" white-space="normal" shape-padding="0" isolation="auto" mix-blend-mode="normal" solid-color="rgb(0,0,0)" solid-opacity="1" vector-effect="none" paint-order="stroke fill markers"/></g></svg>